# xmcd
#
# Track frame offsets: 
#        150
#        2012
#        16499
#        32880
#        49561
#        64735
#        66128
#        79702
#        90439
#        92108
#        103001
#        116187
#        134032
#        148406
#        151683
#        164596
#        187750
#
# Disc length: 3206 seconds
#
# Revision: 0
# Processed by: cddbd v1.5.2PL0 Copyright (c) Steve Scherf et al.
# Submitted via: ExactAudioCopy v0.99pb5
#
DISCID=e20c8411
DTITLE=Defibulators - Corn Money
DYEAR=2009
DGENRE=Real Country
TTITLE0=WRUB
TTITLE1=Defibulator
TTITLE2=Get What's Coming
TTITLE3=Thin Air
TTITLE4=Dum-Dum
TTITLE5=Steal Harmonicas
TTITLE6=Corn Money
TTITLE7=Honey, You Had Me Fooled
TTITLE8=Rusty Nights
TTITLE9=The Gravy Shake
TTITLE10=Ol' Winchester
TTITLE11=Your Hearty Laugh
TTITLE12=Drive You Off
TTITLE13=Dancin' Debbies?
TTITLE14=Go-Go Truck
TTITLE15=Xmas Ornament
TTITLE16=Wandering Eye
EXTD=
EXTT0=
EXTT1=
EXTT2=
EXTT3=
EXTT4=
EXTT5=
EXTT6=
EXTT7=
EXTT8=
EXTT9=
EXTT10=
EXTT11=
EXTT12=
EXTT13=
EXTT14=
EXTT15=
EXTT16=
PLAYORDER=
